<svg class="svg-icon" style="width: 1em;height: 1em;vertical-align: middle;fill: currentColor;overflow: hidden;" viewBox="0 0 1024 1024" version="1.1" xmlns="http://www.w3.org/2000/svg"><path d="M750.861448 582.588898A436.941674 436.941674 0 0 0 75.058326 948.648923a40.781223 40.781223 0 1 0 82.047937 0A355.379228 355.379228 0 0 1 512 593.269695a351.009811 351.009811 0 0 1 126.713085 23.303556 252.455189 252.455189 0 0 1 112.148363-33.984353zM512 428.688331a173.320197 173.320197 0 1 1 172.834707-173.320197A173.320197 173.320197 0 0 1 512 428.688331z m254.882643-173.320197A254.882643 254.882643 0 1 0 512 510.736268a255.368134 255.368134 0 0 0 254.882643-255.368134z m140.792317 540.836694H808.149357v-100.011094a41.266714 41.266714 0 1 0-82.047937 0v100.011094h-100.011094a41.266714 41.266714 0 0 0 0 82.047936h99.525603v100.011095a41.266714 41.266714 0 1 0 82.047937 0v-100.011095h100.011094a41.266714 41.266714 0 0 0 0-82.047936z" fill="rgb(240, 153, 5)" /></svg>